<svg width="33" height="32" viewBox="0 0 33 32" fill="none" xmlns="http://www.w3.org/2000/svg">
<g id="Drop down icon 1" clip-path="url(#clip0_1_51)">
<rect width="33" height="32" fill="#407DC0"/>
<path id="Vector" d="M4.79322 2.02985C8.33972 1.65254 18.4031 2.24478 22.9933 1.99642L23.1586 2.16359L20.1173 5.12478C16.8022 5.12478 13.4871 5.12478 10.1767 5.12478C5.11906 5.17254 3.37178 4.37493 3.15927 7.64179V26.4167C3.22066 27.2955 3.21594 28.0549 4.14625 28.5469C5.07656 29.0388 16.0844 28.8382 18.1292 28.8191C29.1324 28.7379 26.1242 30.7105 26.6059 14.2567L29.6188 11.2716C29.6377 14.7152 29.6566 18.1636 29.6754 21.6072C29.6282 25.5427 30.5491 31.0496 25.3309 31.8519C24.0464 32.0478 5.39768 32.0382 4.1982 31.8376C2.23369 31.5081 0.528906 29.8603 0.170005 27.8639C-0.014168 26.8227 -0.0566694 7.69433 0.0755573 6.53851C0.363623 4.03105 2.37536 2.28776 4.79322 2.02985Z" fill="white"/>
<path id="Vector_2" d="M26.332 2.34508C26.9884 2.71761 30.771 6.39045 30.6246 6.8012C26.11 11.3624 21.5955 15.9284 17.0809 20.4896C15.395 20.9481 13.7091 21.4113 12.0279 21.8699C10.8945 21.9224 11.499 20.9242 11.839 19.434L12.7788 16.0239C17.2981 11.4627 21.8174 6.90627 26.3367 2.34508H26.332Z" fill="white"/>
<path id="Vector_3" d="M29.5432 0.0191045C32.4475 -0.291343 34.19 3.29552 32.0366 5.33493C31.418 4.97672 27.7959 1.40418 27.7298 1.10328C27.6165 0.601791 29.0615 0.0668657 29.5432 0.0143284V0.0191045Z" fill="white"/>
</g>
<defs>
<clipPath id="clip0_1_51">
<rect width="33" height="32" fill="white"/>
</clipPath>
</defs>
</svg>
