<svg width="26" height="28" viewBox="0 0 26 28" fill="none" xmlns="http://www.w3.org/2000/svg">
<g id="Group">
<path id="Vector" d="M12.827 13.5515C16.5457 13.5515 19.5603 10.5179 19.5603 6.77573C19.5603 3.0336 16.5457 0 12.827 0C9.1083 0 6.09369 3.0336 6.09369 6.77573C6.09369 10.5179 9.1083 13.5515 12.827 13.5515Z" fill="black"/>
<path id="Vector_2" d="M25.6561 26.6052C25.6561 26.6052 25.6561 26.611 25.6561 26.6138C25.6561 27.0456 25.3027 27.3912 24.8751 27.3912H0.781087C0.352059 27.3912 0 27.0441 0 26.6138C0 26.611 0 26.6081 0 26.6052C0 21.02 3.52344 16.2652 8.45513 14.4651C9.63103 15.3157 11.1576 15.8292 12.8281 15.8292C14.4986 15.8292 16.0237 15.3157 17.201 14.4651C22.1327 16.2652 25.6561 21.02 25.6561 26.6052Z" fill="black"/>
</g>
</svg>
